<?xml version="1.0" standalone="no"?>
<!DOCTYPE svg PUBLIC "-//W3C//DTD SVG 20010904//EN"
 "http://www.w3.org/TR/2001/REC-SVG-20010904/DTD/svg10.dtd">
<svg version="1.0" xmlns="http://www.w3.org/2000/svg"
 width="27.000000pt" height="37.000000pt" viewBox="0 0 27.000000 37.000000"
 preserveAspectRatio="xMidYMid meet">

<g transform="translate(0.000000,37.000000) scale(0.100000,-0.100000)"
fill="#000000" stroke="none">
<path d="M73 340 c-66 -40 -88 -120 -44 -163 l23 -22 -7 30 c-18 69 -1 115 52
140 39 19 83 13 108 -15 22 -24 22 -98 0 -139 -14 -27 -21 -32 -48 -29 -28 3
-32 6 -31 33 1 17 5 45 9 62 6 26 4 34 -10 39 -24 10 -48 -23 -41 -56 2 -14
-2 -52 -10 -85 -7 -33 -14 -73 -14 -90 1 -29 1 -29 16 -10 8 11 17 36 21 57 5
36 24 50 38 28 12 -19 55 -10 86 18 27 24 33 37 37 84 5 64 -6 91 -51 118 -41
25 -93 25 -134 0z"/>
</g>
</svg>
