<?xml version="1.0" standalone="no"?>
<!DOCTYPE svg PUBLIC "-//W3C//DTD SVG 20010904//EN"
 "http://www.w3.org/TR/2001/REC-SVG-20010904/DTD/svg10.dtd">
<svg version="1.0" xmlns="http://www.w3.org/2000/svg"
 width="22.000000pt" height="40.000000pt" viewBox="0 0 22.000000 40.000000"
 preserveAspectRatio="xMidYMid meet">

<g transform="translate(0.000000,40.000000) scale(0.100000,-0.100000)"
fill="#000000" stroke="none">
<path d="M92 368 c-13 -15 -22 -39 -24 -68 -3 -43 -5 -45 -36 -48 -29 -3 -32
-6 -32 -38 0 -32 2 -34 35 -34 l35 0 0 -85 0 -85 35 0 35 0 0 85 0 85 35 0
c33 0 35 2 35 35 0 33 -2 35 -35 35 -33 0 -35 2 -35 34 0 35 13 46 51 46 14 0
19 7 19 30 0 29 -1 30 -48 30 -37 0 -53 -5 -70 -22z"/>
</g>
</svg>
