<?xml version="1.0" standalone="no"?>
<!DOCTYPE svg PUBLIC "-//W3C//DTD SVG 20010904//EN"
 "http://www.w3.org/TR/2001/REC-SVG-20010904/DTD/svg10.dtd">
<svg version="1.0" xmlns="http://www.w3.org/2000/svg"
 width="33.000000pt" height="28.000000pt" viewBox="0 0 33.000000 28.000000"
 preserveAspectRatio="xMidYMid meet">

<g transform="translate(0.000000,28.000000) scale(0.100000,-0.100000)"
fill="#000000" stroke="none">
<path d="M181 244 c-12 -15 -21 -33 -21 -40 0 -28 -76 -7 -122 34 -17 14 -18
13 -18 -8 0 -13 7 -32 17 -42 15 -17 15 -18 0 -18 -24 0 -21 -16 8 -38 22 -18
23 -21 8 -24 -14 -3 -11 -8 15 -25 36 -22 34 -26 -18 -49 -25 -11 -25 -11 13
-19 70 -14 145 16 190 76 21 29 48 132 38 145 -11 15 -50 34 -70 34 -11 0 -29
-12 -40 -26z"/>
</g>
</svg>
