<?xml version="1.0" standalone="no"?>
<!DOCTYPE svg PUBLIC "-//W3C//DTD SVG 20010904//EN"
 "http://www.w3.org/TR/2001/REC-SVG-20010904/DTD/svg10.dtd">
<svg version="1.0" xmlns="http://www.w3.org/2000/svg"
 width="33.000000pt" height="33.000000pt" viewBox="0 0 33.000000 33.000000"
 preserveAspectRatio="xMidYMid meet">

<g transform="translate(0.000000,33.000000) scale(0.100000,-0.100000)"
fill="#000000" stroke="none">
<path d="M20 310 c-18 -18 -20 -33 -20 -141 0 -66 5 -129 10 -140 10 -17 23
-19 156 -19 l144 0 10 26 c6 14 10 77 10 140 0 155 1 154 -165 154 -112 0
-127 -2 -145 -20z m278 -47 c2 -24 -1 -33 -17 -38 -35 -11 -61 3 -61 34 0 36
8 43 45 39 26 -3 30 -8 33 -35z m-68 -69 c21 -54 -33 -107 -88 -88 -36 13 -53
48 -40 85 18 53 109 55 128 3z m-160 -28 c0 -22 9 -45 24 -63 20 -23 32 -28
71 -28 39 0 51 5 71 28 15 18 24 41 24 63 0 28 4 34 20 34 19 0 21 -5 18 -77
l-3 -78 -132 -3 -133 -3 0 81 c0 73 2 80 20 80 16 0 20 -7 20 -34z"/>
</g>
</svg>
