<?xml version="1.0" standalone="no"?>
<!DOCTYPE svg PUBLIC "-//W3C//DTD SVG 20010904//EN"
 "http://www.w3.org/TR/2001/REC-SVG-20010904/DTD/svg10.dtd">
<svg version="1.0" xmlns="http://www.w3.org/2000/svg"
 width="964.000000pt" height="471.000000pt" viewBox="0 0 964.000000 471.000000"
 preserveAspectRatio="xMidYMid meet">

<g transform="translate(0.000000,471.000000) scale(0.100000,-0.100000)"
fill="#ad7835" stroke="none">
<path d="M0 2355 l0 -2355 1703 0 1703 0 43 21 c32 15 46 18 51 9 5 -8 15 -4
34 13 19 17 23 27 14 30 -7 3 -4 5 8 4 11 -1 37 7 57 17 21 9 41 15 46 12 16
-11 117 47 174 100 120 112 296 199 477 236 126 26 344 21 465 -12 105 -28
249 -97 337 -161 l70 -51 97 11 c53 5 157 13 231 16 149 5 243 19 495 70 265
54 372 63 795 71 212 3 393 8 403 10 10 2 247 6 525 10 372 5 542 4 640 -5
104 -10 151 -10 221 -1 l88 12 37 62 c21 33 57 96 82 140 133 239 356 414 613
482 36 9 73 23 82 31 17 14 61 18 73 5 4 -4 13 -7 19 -7 7 0 11 -8 9 -18 -2
-9 2 -17 9 -17 7 0 9 9 5 25 -5 18 -1 30 14 42 20 17 20 25 20 1785 l0 1768
-4820 0 -4820 0 0 -2355z m9540 571 l0 -1684 -32 -7 c-18 -4 -41 -14 -51 -23
-10 -9 -49 -24 -88 -34 -94 -24 -246 -96 -328 -157 -76 -57 -209 -191 -268
-271 -37 -51 -49 -72 -99 -173 -34 -68 -55 -83 -127 -91 -36 -3 -109 -1 -163
5 -89 10 -896 6 -1309 -6 -60 -2 -236 -6 -390 -9 -352 -6 -401 -12 -735 -81
-202 -42 -294 -53 -475 -61 -77 -4 -169 -10 -205 -14 -61 -7 -67 -6 -100 20
-146 113 -372 195 -574 209 -315 21 -615 -82 -840 -289 -28 -26 -64 -45 -111
-60 -39 -13 -74 -25 -80 -29 -5 -3 -21 -7 -35 -9 -14 -2 -33 -11 -43 -20 -47
-43 -11 -42 -1739 -42 l-1648 0 0 2255 0 2255 4720 0 4720 0 0 -1684z"/>
<path d="M3570 60 c0 -5 5 -10 11 -10 5 0 7 5 4 10 -3 6 -8 10 -11 10 -2 0 -4
-4 -4 -10z"/>
</g>
</svg>
